<svg width="67" height="99" viewBox="0 0 67 99" fill="none" xmlns="http://www.w3.org/2000/svg">
<path d="M14.395 24.3274C14.3745 24.3397 14.354 24.3602 14.3356 24.3602C13.7541 24.3643 13.1767 24.4298 12.5993 24.5117C11.1189 24.7206 9.66104 25.04 8.24413 25.5724C8.01071 25.6604 7.86739 25.7996 7.79367 26.0658C7.53978 26.977 7.33297 27.9045 7.20193 28.8464C7.09546 29.6019 6.99308 30.3636 7.00946 31.1335C7.01356 31.328 7.0156 31.5266 7.11593 31.7027C7.58687 32.532 8.21751 33.1667 8.97511 33.6581C10.3818 34.5693 11.9215 35.0894 13.4736 35.5624C14.4707 35.8654 15.4781 36.1316 16.4814 36.4203C17.0834 36.5943 17.6793 36.7827 18.2812 36.9547C19.4606 37.2925 20.6421 37.6263 21.7907 38.0829C21.8685 38.1136 21.9812 38.1157 21.9832 38.2446C21.9832 38.3552 21.8849 38.3736 21.8173 38.4125C20.855 38.9879 19.8824 39.5387 18.8853 40.0363C17.7673 40.5932 16.6514 41.1583 15.5559 41.7726C14.3192 42.4667 13.0579 43.1055 11.8601 43.8897C11.4465 44.16 11.2151 44.4999 11.1209 45.02C10.7462 47.0839 10.8568 49.1274 11.2684 51.1688C11.3544 51.5967 11.5653 51.8342 11.8929 52.041C12.8818 52.6635 13.9588 53.0198 15.0318 53.3801C15.9593 53.6934 16.9094 53.9248 17.8492 54.193C18.8525 54.4776 19.8558 54.7541 20.857 55.0489C21.6802 55.2926 22.491 55.5813 23.2936 55.9048C24.8293 56.5231 26.3773 57.1046 27.874 57.8356C28.4105 58.0977 28.4289 58.1079 27.9477 58.5482C26.754 59.6375 25.4456 60.5445 24.1475 61.4618C22.923 62.3259 21.674 63.147 20.4393 63.9926C19.5978 64.57 18.7542 65.1413 17.9168 65.7269C16.9462 66.4067 15.9511 67.0435 14.9683 67.7028C14.225 68.2024 13.5063 68.747 12.7467 69.222C12.2471 69.5333 11.7598 69.8691 11.3441 70.3257C9.80642 72.0231 8.35675 73.8086 6.96646 75.6575C6.82927 75.8397 6.8088 75.9994 6.91323 76.2124C7.21422 76.8205 7.49883 77.4368 7.79367 78.049C8.19909 78.8885 8.62088 79.7157 9.01811 80.5593C9.7327 82.0807 10.392 83.6348 11.0718 85.1745C11.3093 85.7089 11.5427 86.2454 11.7782 86.7819C12.0649 87.4371 12.3065 88.125 12.6505 88.7414C13.2402 89.7999 13.9343 90.7787 14.6591 91.7267C15.6112 92.9695 16.6063 94.1715 17.6035 95.3713C18.4921 96.4402 19.391 97.4987 20.2817 98.5655C20.4762 98.7989 20.5049 98.7887 20.5745 98.4775C20.8407 97.2837 21.1232 96.0962 21.3567 94.8942C21.5614 93.8398 21.8542 92.8119 22.059 91.7574C22.2535 90.748 22.5586 89.7692 22.8288 88.7803C23.1196 87.7114 23.5291 86.702 23.9673 85.7007C24.4935 84.5009 24.9767 83.2764 25.4927 82.0725C26.1479 80.545 26.7622 78.9991 27.3294 77.4266C27.7901 76.1448 28.2753 74.8753 28.8241 73.6386C29.2049 72.7827 29.6677 72.0272 30.5113 71.6607C31.5719 71.2 32.6694 70.8908 33.7914 70.7352C35.149 70.5468 36.5188 70.5079 37.8906 70.5407C39.6085 70.5816 41.3285 70.6144 43.0423 70.3666C43.9166 70.2417 44.8011 70.1803 45.6754 70.0431C47.2561 69.7933 48.8102 69.4227 50.2886 68.7265C50.9131 68.4337 51.5253 68.1164 51.9819 67.5144C52.7149 66.552 53.4602 65.5999 54.2096 64.654C55.4689 63.0692 56.7322 61.4905 57.9996 59.9159C58.2883 59.5597 58.5095 59.1686 58.6405 58.7099C59.0029 57.4548 59.4309 56.2303 59.9735 55.055C60.5816 53.7364 61.2327 52.4567 62.1766 51.392C62.3179 51.2323 62.4592 51.1115 62.6619 51.0889C62.7336 51.0807 62.8482 51.0992 62.8359 50.9681C62.8257 50.8699 62.7315 50.8514 62.6476 50.8432C62.1684 50.7961 61.7733 50.5463 61.4539 50.1634C61.0791 49.715 60.7311 49.238 60.3748 48.7711C60.2786 48.6462 60.1618 48.5623 60.0185 48.5152C59.5988 48.378 59.1729 48.2654 58.7408 48.1814C58.4337 48.122 58.1839 48.2019 57.928 48.38C57.6249 48.5909 57.3055 48.7752 56.9922 48.9697C56.9451 48.9984 56.8878 49.0393 56.8387 48.9861C56.7875 48.9288 56.8325 48.8714 56.855 48.8162C57.3198 47.7023 57.9075 46.6601 58.4214 45.5749C58.8309 44.7108 59.2445 43.8467 59.6704 42.9929C60.1127 42.1063 60.5325 41.2054 60.9665 40.3147C61.3679 39.4937 61.7855 38.6849 62.1787 37.8597C62.5411 37.098 62.8789 36.3199 63.2291 35.5501C63.7962 34.3052 64.39 33.0766 64.8733 31.7826C65.3811 30.425 65.8069 29.0389 66.2062 27.6383C66.4929 26.6309 66.6362 25.5887 66.7427 24.5445C66.8962 23.0477 67.0375 21.5428 66.5727 20.0706C66.5482 19.9948 66.542 19.9129 66.5318 19.8351C66.4048 18.9137 66.1182 18.0415 65.8499 17.1672C65.551 16.1987 65.1272 15.2875 64.6869 14.3907C64.6071 14.2269 64.5334 14.059 64.3614 13.9812C63.0427 13.3792 61.6688 13.1376 60.2499 13.2051C59.564 13.2379 58.8903 13.3751 58.2167 13.5164C58.0979 13.5409 57.9546 13.5676 57.9136 13.3997C57.8133 12.982 57.6024 12.6195 57.455 12.2264C57.1642 11.4545 56.7813 10.7378 56.38 10.0294C55.9459 9.26566 55.4156 8.59406 54.8935 7.91018C54.228 7.03997 53.4745 6.27213 52.719 5.5084C52.0761 4.85932 51.3533 4.31672 50.6428 3.75979C49.5883 2.93667 48.4437 2.29784 47.2971 1.6631C46.2098 1.06112 45.0693 0.610655 43.9248 0.172479C43.4804 0.00253185 43.0382 -0.108036 42.5836 0.166336C41.5762 0.774459 40.6507 1.50953 39.8194 2.38998C39.6065 2.61521 39.4058 2.85887 39.2011 3.09638C39.0884 3.22538 39.0843 3.36666 39.1376 3.53865C39.5737 4.94327 40.0221 6.34175 40.5156 7.72385C40.8821 8.75172 41.308 9.74683 41.7011 10.7604C42.0205 11.5855 42.3891 12.3861 42.7433 13.1949C43.1917 14.2207 43.7016 15.2097 44.2176 16.1905C44.8134 17.3248 45.4768 18.4162 46.1095 19.5259C46.8855 20.8855 47.6984 22.2164 48.5338 23.5309C48.63 23.6825 48.7263 23.836 48.8143 23.9937C48.8921 24.1329 48.843 24.2087 48.7058 24.2292C48.2615 24.2947 47.8458 24.4974 47.4117 24.5977C47.0616 24.6796 46.9121 24.8926 46.8261 25.2611C46.4064 27.0343 46.1853 28.8423 45.9989 30.6585C45.8986 31.6413 45.8576 32.6303 45.8228 33.6192C45.7757 34.9911 45.7287 36.3691 45.9764 37.7246C46.259 39.2684 46.4781 40.8287 46.8999 42.3377C47.078 42.9745 47.1906 43.6318 47.3626 44.2747C47.6595 45.3845 47.9769 46.486 48.3147 47.5815C48.3393 47.6613 48.3987 47.7678 48.3209 47.8292C48.2328 47.8989 48.155 47.8047 48.0936 47.7412C47.7394 47.3644 47.3053 47.1065 46.906 46.8034C46.1607 46.2403 45.4359 45.6445 44.709 45.0548C43.8797 44.3832 43.1057 43.6277 42.2662 42.9683C41.2097 42.137 40.3354 41.0846 39.4611 40.0404C38.3411 38.7033 37.3091 37.2741 36.2874 35.8408C35.8001 35.159 35.2964 34.4935 34.8398 33.7892C34.5818 33.392 34.2706 33.0459 34.0208 32.6446C33.5252 31.846 32.9786 31.0926 32.438 30.3329C31.9691 29.6716 31.5125 28.9959 31.0293 28.3468C30.6321 27.8144 30.2983 27.2247 29.899 26.6944C29.1988 25.7607 28.5415 24.784 27.8474 23.8442C27.2556 23.0416 26.6762 22.2226 26.0558 21.4506C25.3105 20.5251 24.6184 19.5444 23.7994 18.6926C23.1585 18.0271 22.577 17.2962 21.9382 16.6246C21.3321 15.9857 20.6707 15.4738 19.9008 15.1257C18.2853 14.3968 16.6964 13.5962 15.0481 12.9594C14.2066 12.6339 13.3773 12.2756 12.5235 11.9889C10.9694 11.4668 9.40714 10.9774 7.82848 10.5536C5.77479 10.0028 3.69857 9.59326 1.60597 9.28408C1.45036 9.26156 1.35822 9.30456 1.26813 9.45198C0.772618 10.2587 0.402011 11.133 0.0969255 12.0462C-0.00135695 12.339 -0.0361653 12.638 0.0457367 12.9369C0.19316 13.4836 0.410203 14.0037 0.678432 14.4869C1.21489 15.4513 1.98067 16.1884 2.71779 16.944C3.21125 17.4497 3.73952 17.9043 4.30874 18.3056C5.23219 18.9547 6.1372 19.6406 7.11798 20.1771C8.55536 20.9613 10.0091 21.7107 11.4424 22.5092C12.3761 23.0293 13.3221 23.5207 14.2127 24.1309C14.2824 24.178 14.3806 24.2005 14.397 24.3254L14.395 24.3274Z" fill="#FCD56C"/>
</svg>
